<svg width="17" height="18" viewBox="0 0 17 18" fill="none" xmlns="http://www.w3.org/2000/svg">
<path d="M16.4066 17.6109C16.342 17.7286 16.2471 17.8267 16.1317 17.8951C16.0162 17.9636 15.8846 17.9998 15.7504 18H11.2504C11.1241 18 11 17.9681 10.8893 17.9073C10.7787 17.8465 10.6852 17.7587 10.6176 17.6522L6.82162 11.6869L1.30536 17.7544C1.17089 17.8988 0.984904 17.9845 0.787721 17.9927C0.590538 18.0009 0.398054 17.9311 0.252001 17.7984C0.105948 17.6657 0.0180975 17.4807 0.00749552 17.2836C-0.00310645 17.0866 0.064395 16.8933 0.195365 16.7456L5.9863 10.3706L0.117552 1.15313C0.0452725 1.03973 0.00481053 0.908984 0.000403041 0.774582C-0.00400445 0.64018 0.0278046 0.507066 0.0924997 0.389177C0.157195 0.271288 0.252396 0.172962 0.368134 0.104494C0.483873 0.0360256 0.615891 -6.53095e-05 0.750365 8.87202e-08H5.25036C5.37659 3.91221e-05 5.50077 0.0319361 5.61139 0.0927355C5.722 0.153535 5.81549 0.24127 5.88318 0.347813L9.67912 6.31312L15.1954 0.245625C15.3298 0.101174 15.5158 0.015547 15.713 0.00730857C15.9102 -0.00092985 16.1027 0.0688843 16.2487 0.201615C16.3948 0.334346 16.4826 0.519295 16.4932 0.716365C16.5038 0.913434 16.4363 1.10674 16.3054 1.25438L10.5144 7.62469L16.3832 16.8478C16.4551 16.9613 16.4951 17.0919 16.4993 17.2262C16.5034 17.3604 16.4714 17.4933 16.4066 17.6109Z" fill="white"/>
</svg>
