<svg width="21" height="17" viewBox="0 0 21 17" fill="none" xmlns="http://www.w3.org/2000/svg">
<path d="M20.4684 2.7675C20.3801 2.42189 20.2109 2.10224 19.9747 1.83491C19.7385 1.56758 19.4421 1.36024 19.11 1.23C15.8962 -0.0112465 10.7812 3.56619e-06 10.5 3.56619e-06C10.2188 3.56619e-06 5.10375 -0.0112465 1.89 1.23C1.5579 1.36024 1.26153 1.56758 1.02534 1.83491C0.789145 2.10224 0.619899 2.42189 0.531563 2.7675C0.28875 3.70313 0 5.41313 0 8.25C0 11.0869 0.28875 12.7969 0.531563 13.7325C0.619767 14.0783 0.788954 14.3981 1.02515 14.6656C1.26136 14.9331 1.5578 15.1406 1.89 15.2709C4.96875 16.4588 9.7875 16.5 10.4381 16.5H10.5619C11.2125 16.5 16.0341 16.4588 19.11 15.2709C19.4422 15.1406 19.7386 14.9331 19.9748 14.6656C20.211 14.3981 20.3802 14.0783 20.4684 13.7325C20.7113 12.795 21 11.0869 21 8.25C21 5.41313 20.7113 3.70313 20.4684 2.7675ZM13.5553 8.86125L9.80531 11.4863C9.69314 11.5648 9.56158 11.6112 9.42492 11.6203C9.28826 11.6294 9.15172 11.601 9.0301 11.538C8.90847 11.475 8.80642 11.3799 8.73501 11.263C8.6636 11.1462 8.62555 11.012 8.625 10.875V5.625C8.62504 5.4878 8.66271 5.35324 8.73392 5.23597C8.80513 5.11869 8.90714 5.02319 9.02885 4.95987C9.15057 4.89655 9.28732 4.86783 9.42422 4.87683C9.56113 4.88584 9.69294 4.93222 9.80531 5.01094L13.5553 7.63594C13.654 7.70512 13.7345 7.79704 13.7901 7.90393C13.8457 8.01081 13.8747 8.12952 13.8747 8.25C13.8747 8.37049 13.8457 8.48919 13.7901 8.59608C13.7345 8.70297 13.654 8.79489 13.5553 8.86407V8.86125Z" fill="white"/>
</svg>
