<svg width="14" height="11" viewBox="0 0 14 11" fill="none" xmlns="http://www.w3.org/2000/svg">
<path d="M13 10.5C13 10.6326 12.9473 10.7598 12.8536 10.8536C12.7598 10.9473 12.6326 11 12.5 11H0.5C0.367392 11 0.240215 10.9473 0.146447 10.8536C0.0526784 10.7598 0 10.6326 0 10.5V0.5C0 0.367392 0.0526784 0.240215 0.146447 0.146447C0.240215 0.0526785 0.367392 0 0.5 0C0.632608 0 0.759785 0.0526785 0.853553 0.146447C0.947321 0.240215 1 0.367392 1 0.5V6.39812L4.17063 3.625C4.2569 3.54947 4.36652 3.5059 4.4811 3.50157C4.59569 3.49725 4.70828 3.53244 4.8 3.60125L8.47563 6.35812L12.1706 3.125C12.2191 3.07704 12.2768 3.0395 12.3403 3.01467C12.4038 2.98985 12.4717 2.97827 12.5398 2.98065C12.6079 2.98303 12.6749 2.99931 12.7365 3.0285C12.7981 3.05769 12.8531 3.09917 12.898 3.15038C12.943 3.2016 12.9771 3.26148 12.9981 3.32633C13.0191 3.39119 13.0266 3.45965 13.0201 3.52752C13.0137 3.59538 12.9935 3.66122 12.9607 3.72097C12.9279 3.78073 12.8832 3.83314 12.8294 3.875L8.82938 7.375C8.7431 7.45053 8.63348 7.4941 8.5189 7.49843C8.40431 7.50275 8.29173 7.46756 8.2 7.39875L4.52437 4.64313L1 7.72688V10H12.5C12.6326 10 12.7598 10.0527 12.8536 10.1464C12.9473 10.2402 13 10.3674 13 10.5Z" fill="white"/>
</svg>
