<svg width="14" height="14" viewBox="0 0 14 14" fill="none" xmlns="http://www.w3.org/2000/svg">
<path d="M12.3761 3.6997C13.0699 5.15083 13.2016 6.80753 12.7458 8.35006C12.29 9.89258 11.2789 11.2116 9.90778 12.0525C8.53664 12.8934 6.9026 13.1966 5.32105 12.9036C3.73949 12.6106 2.32253 11.7422 1.34364 10.4659C0.364745 9.18958 -0.106687 7.59592 0.0203288 5.99247C0.147345 4.38903 0.863805 2.88946 2.03143 1.7832C3.19906 0.67694 4.73508 0.0424004 6.34304 0.00204947C7.951 -0.0383014 9.51692 0.518397 10.7386 1.5647L12.1554 0.147202C12.2493 0.0533816 12.3765 0.00067391 12.5092 0.00067391C12.6419 0.00067391 12.7691 0.0533816 12.8629 0.147202C12.9568 0.241022 13.0095 0.36827 13.0095 0.500952C13.0095 0.633634 12.9568 0.760882 12.8629 0.854702L6.86294 6.8547C6.76912 6.94852 6.64187 7.00123 6.50919 7.00123C6.37651 7.00123 6.24926 6.94852 6.15544 6.8547C6.06162 6.76088 6.00891 6.63363 6.00891 6.50095C6.00891 6.36827 6.06162 6.24102 6.15544 6.1472L7.88794 4.4147C7.41841 4.10417 6.85782 3.9612 6.29692 4.00892C5.73602 4.05664 5.20764 4.29227 4.79732 4.67765C4.387 5.06304 4.11875 5.57563 4.03601 6.13244C3.95326 6.68925 4.06086 7.25769 4.34138 7.74574C4.62191 8.23379 5.05893 8.61288 5.58172 8.82165C6.1045 9.03041 6.68245 9.05663 7.22198 8.89605C7.76152 8.73547 8.23108 8.39751 8.55463 7.93686C8.87819 7.47621 9.03681 6.91984 9.00481 6.35783C9.00112 6.29217 9.0104 6.22642 9.03211 6.16434C9.05383 6.10227 9.08755 6.04508 9.13137 5.99604C9.17519 5.947 9.22824 5.90706 9.28749 5.87853C9.34674 5.84999 9.41103 5.8334 9.47669 5.8297C9.6093 5.82224 9.73944 5.86777 9.83848 5.95626C9.88752 6.00008 9.92745 6.05313 9.95599 6.11238C9.98453 6.17163 10.0011 6.23592 10.0048 6.30158C10.0504 7.09706 9.82319 7.88429 9.36074 8.53316C8.8983 9.18202 8.2283 9.65367 7.46148 9.87015C6.69466 10.0866 5.87692 10.035 5.14343 9.72376C4.40994 9.41253 3.80459 8.86035 3.42745 8.15846C3.0503 7.45658 2.92393 6.64702 3.06923 5.86359C3.21452 5.08016 3.62278 4.36975 4.22652 3.84978C4.83027 3.32981 5.59336 3.03141 6.38968 3.0039C7.186 2.97638 7.96787 3.2214 8.60606 3.69845L10.0279 2.27658C8.98594 1.41145 7.66104 0.961803 6.30772 1.014C4.9544 1.0662 3.66807 1.61655 2.6958 2.55937C1.72353 3.50218 1.13388 4.77097 1.04009 6.12205C0.946299 7.47313 1.35499 8.81123 2.18766 9.87934C3.02033 10.9474 4.21828 11.6703 5.55141 11.9089C6.88454 12.1476 8.25885 11.8854 9.41039 11.1725C10.5619 10.4597 11.4095 9.34648 11.7903 8.04679C12.1711 6.7471 12.0583 5.35254 11.4736 4.13095C11.4164 4.01127 11.4091 3.87378 11.4533 3.74871C11.4974 3.62365 11.5895 3.52126 11.7092 3.46408C11.8289 3.40689 11.9664 3.39959 12.0914 3.44378C12.2165 3.48796 12.3189 3.58002 12.3761 3.6997Z" fill="white"/>
</svg>
