<svg width="14" height="14" viewBox="0 0 14 14" fill="none" xmlns="http://www.w3.org/2000/svg">
<path d="M5.00004 1.00004V0.500041C5.00004 0.367433 5.05272 0.240256 5.14649 0.146488C5.24026 0.0527195 5.36743 4.11376e-05 5.50004 4.11376e-05C5.63265 4.11376e-05 5.75983 0.0527195 5.85359 0.146488C5.94736 0.240256 6.00004 0.367433 6.00004 0.500041V1.00004C6.00004 1.13265 5.94736 1.25983 5.85359 1.35359C5.75983 1.44736 5.63265 1.50004 5.50004 1.50004C5.36743 1.50004 5.24026 1.44736 5.14649 1.35359C5.05272 1.25983 5.00004 1.13265 5.00004 1.00004ZM0.500041 6.00004H1.00004C1.13265 6.00004 1.25983 5.94736 1.35359 5.85359C1.44736 5.75983 1.50004 5.63265 1.50004 5.50004C1.50004 5.36743 1.44736 5.24026 1.35359 5.14649C1.25983 5.05272 1.13265 5.00004 1.00004 5.00004H0.500041C0.367433 5.00004 0.240256 5.05272 0.146488 5.14649C0.0527195 5.24026 4.11376e-05 5.36743 4.11376e-05 5.50004C4.11376e-05 5.63265 0.0527195 5.75983 0.146488 5.85359C0.240256 5.94736 0.367433 6.00004 0.500041 6.00004ZM7.27629 1.94754C7.33505 1.97697 7.39903 1.99452 7.46458 1.9992C7.53013 2.00388 7.59596 1.99559 7.6583 1.97481C7.72064 1.95403 7.77828 1.92117 7.82791 1.87809C7.87754 1.83502 7.91819 1.78259 7.94754 1.72379L8.44754 0.723791C8.50688 0.60519 8.51668 0.467872 8.47478 0.342047C8.43288 0.216222 8.34271 0.112196 8.2241 0.0528537C8.1055 -0.00648853 7.96818 -0.0162859 7.84236 0.0256167C7.71653 0.0675194 7.61251 0.15769 7.55317 0.276291L7.05317 1.27629C7.02372 1.33501 7.00613 1.39896 7.00141 1.46448C6.99668 1.53 7.00492 1.59581 7.02564 1.65815C7.04636 1.72049 7.07916 1.77813 7.12217 1.82779C7.16518 1.87744 7.21755 1.91814 7.27629 1.94754ZM1.27629 7.05317L0.276291 7.55317C0.15769 7.61251 0.0675194 7.71653 0.0256167 7.84236C-0.0162859 7.96818 -0.00648853 8.1055 0.0528537 8.2241C0.112196 8.34271 0.216222 8.43288 0.342047 8.47478C0.467872 8.51668 0.60519 8.50688 0.723791 8.44754L1.72379 7.94754C1.78252 7.91816 1.83488 7.87749 1.87789 7.82788C1.9209 7.77826 1.95372 7.72065 1.97447 7.65835C1.99521 7.59605 2.00349 7.53027 1.99881 7.46477C1.99414 7.39927 1.97661 7.33533 1.94723 7.2766C1.91785 7.21788 1.87718 7.16551 1.82756 7.1225C1.77794 7.07949 1.72034 7.04668 1.65804 7.02593C1.59573 7.00518 1.52995 6.99691 1.46445 7.00158C1.39895 7.00625 1.33502 7.02378 1.27629 7.05317ZM13.2069 11C13.2998 11.0929 13.3735 11.2032 13.4237 11.3245C13.474 11.4458 13.4999 11.5759 13.4999 11.7072C13.4999 11.8386 13.474 11.9686 13.4237 12.09C13.3735 12.2113 13.2998 12.3216 13.2069 12.4144L12.4144 13.2069C12.3216 13.2998 12.2113 13.3735 12.09 13.4237C11.9686 13.474 11.8386 13.4999 11.7072 13.4999C11.5759 13.4999 11.4458 13.474 11.3245 13.4237C11.2032 13.3735 11.0929 13.2998 11 13.2069L7.79379 10L6.68754 12.8807C6.68754 12.8869 6.68254 12.8938 6.67942 12.9007C6.60289 13.0791 6.47558 13.231 6.31332 13.3376C6.15107 13.4442 5.96104 13.5007 5.76692 13.5H5.71754C5.51508 13.4915 5.32014 13.4209 5.15907 13.298C4.998 13.175 4.87856 13.0056 4.81692 12.8125L1.55004 2.80754C1.49396 2.63256 1.48717 2.44552 1.53042 2.26694C1.57367 2.08836 1.66529 1.92514 1.79522 1.79522C1.92514 1.66529 2.08836 1.57367 2.26694 1.53042C2.44552 1.48717 2.63256 1.49396 2.80754 1.55004L12.8125 4.81692C13.0038 4.88088 13.1712 5.00116 13.2928 5.16196C13.4145 5.32277 13.4847 5.51659 13.4942 5.718C13.5037 5.91941 13.4521 6.11899 13.3462 6.29056C13.2403 6.46213 13.085 6.59768 12.9007 6.67942L12.8807 6.68754L10 7.79317L13.2069 11ZM12.5 11.7069L9.29317 8.50004C9.17774 8.38482 9.09224 8.24312 9.04413 8.08729C8.99601 7.93146 8.98674 7.76622 9.01713 7.60599C9.04751 7.44575 9.11662 7.29538 9.21844 7.16797C9.32026 7.04057 9.4517 6.94001 9.60129 6.87504L9.62129 6.86629L12.4932 5.76379L2.50004 2.50004L5.76254 12.4913L6.86567 9.61629C6.86567 9.60942 6.87067 9.60254 6.87379 9.59567C6.93878 9.44619 7.03932 9.31486 7.16666 9.21312C7.294 9.11138 7.44428 9.04231 7.60442 9.01192C7.66626 9.00045 7.72902 8.99459 7.79192 8.99442C8.05687 8.99471 8.31088 9.10013 8.49817 9.28754L11.7069 12.5L12.5 11.7069Z" fill="white"/>
</svg>
