<svg width="11" height="13" viewBox="0 0 11 13" fill="none" xmlns="http://www.w3.org/2000/svg">
<path d="M10.8538 2.64625L8.35375 0.14625C8.30728 0.099833 8.25212 0.063026 8.19143 0.037932C8.13073 0.0128379 8.06568 -5.14929e-05 8 1.54599e-07H3C2.73478 1.54599e-07 2.48043 0.105357 2.29289 0.292893C2.10536 0.48043 2 0.734784 2 1V2H1C0.734784 2 0.48043 2.10536 0.292893 2.29289C0.105357 2.48043 0 2.73478 0 3V12C0 12.2652 0.105357 12.5196 0.292893 12.7071C0.48043 12.8946 0.734784 13 1 13H8C8.26522 13 8.51957 12.8946 8.70711 12.7071C8.89464 12.5196 9 12.2652 9 12V11H10C10.2652 11 10.5196 10.8946 10.7071 10.7071C10.8946 10.5196 11 10.2652 11 10V3C11.0001 2.93432 10.9872 2.86927 10.9621 2.80858C10.937 2.74788 10.9002 2.69272 10.8538 2.64625ZM8 12H1V3H5.79313L8 5.20687V10.49C8 10.4937 8 10.4969 8 10.5C8 10.5031 8 10.5063 8 10.51V12ZM10 10H9V5C9.00005 4.93432 8.98716 4.86927 8.96207 4.80858C8.93697 4.74788 8.90017 4.69272 8.85375 4.64625L6.35375 2.14625C6.30728 2.09983 6.25212 2.06303 6.19143 2.03793C6.13073 2.01284 6.06568 1.99995 6 2H3V1H7.79313L10 3.20688V10ZM6.5 8C6.5 8.13261 6.44732 8.25979 6.35355 8.35355C6.25979 8.44732 6.13261 8.5 6 8.5H3C2.86739 8.5 2.74021 8.44732 2.64645 8.35355C2.55268 8.25979 2.5 8.13261 2.5 8C2.5 7.86739 2.55268 7.74021 2.64645 7.64645C2.74021 7.55268 2.86739 7.5 3 7.5H6C6.13261 7.5 6.25979 7.55268 6.35355 7.64645C6.44732 7.74021 6.5 7.86739 6.5 8ZM6.5 10C6.5 10.1326 6.44732 10.2598 6.35355 10.3536C6.25979 10.4473 6.13261 10.5 6 10.5H3C2.86739 10.5 2.74021 10.4473 2.64645 10.3536C2.55268 10.2598 2.5 10.1326 2.5 10C2.5 9.86739 2.55268 9.74021 2.64645 9.64645C2.74021 9.55268 2.86739 9.5 3 9.5H6C6.13261 9.5 6.25979 9.55268 6.35355 9.64645C6.44732 9.74021 6.5 9.86739 6.5 10Z" fill="white"/>
</svg>
