<svg width="14" height="12" viewBox="0 0 14 12" fill="none" xmlns="http://www.w3.org/2000/svg">
<path d="M1.00047 2C1.00047 1.86739 1.05315 1.74021 1.14692 1.64645C1.24069 1.55268 1.36787 1.5 1.50047 1.5H2.50047V0.5C2.50047 0.367392 2.55315 0.240215 2.64692 0.146447C2.74069 0.0526785 2.86787 0 3.00047 0C3.13308 0 3.26026 0.0526785 3.35403 0.146447C3.4478 0.240215 3.50047 0.367392 3.50047 0.5V1.5H4.50047C4.63308 1.5 4.76026 1.55268 4.85403 1.64645C4.9478 1.74021 5.00047 1.86739 5.00047 2C5.00047 2.13261 4.9478 2.25979 4.85403 2.35355C4.76026 2.44732 4.63308 2.5 4.50047 2.5H3.50047V3.5C3.50047 3.63261 3.4478 3.75979 3.35403 3.85355C3.26026 3.94732 3.13308 4 3.00047 4C2.86787 4 2.74069 3.94732 2.64692 3.85355C2.55315 3.75979 2.50047 3.63261 2.50047 3.5V2.5H1.50047C1.36787 2.5 1.24069 2.44732 1.14692 2.35355C1.05315 2.25979 1.00047 2.13261 1.00047 2ZM9.50047 10H9.00047V9.5C9.00047 9.36739 8.9478 9.24021 8.85403 9.14645C8.76026 9.05268 8.63308 9 8.50047 9C8.36787 9 8.24069 9.05268 8.14692 9.14645C8.05315 9.24021 8.00047 9.36739 8.00047 9.5V10H7.50047C7.36787 10 7.24069 10.0527 7.14692 10.1464C7.05315 10.2402 7.00047 10.3674 7.00047 10.5C7.00047 10.6326 7.05315 10.7598 7.14692 10.8536C7.24069 10.9473 7.36787 11 7.50047 11H8.00047V11.5C8.00047 11.6326 8.05315 11.7598 8.14692 11.8536C8.24069 11.9473 8.36787 12 8.50047 12C8.63308 12 8.76026 11.9473 8.85403 11.8536C8.9478 11.7598 9.00047 11.6326 9.00047 11.5V11H9.50047C9.63308 11 9.76026 10.9473 9.85403 10.8536C9.9478 10.7598 10.0005 10.6326 10.0005 10.5C10.0005 10.3674 9.9478 10.2402 9.85403 10.1464C9.76026 10.0527 9.63308 10 9.50047 10ZM13.0005 7H12.0005V6C12.0005 5.86739 11.9478 5.74021 11.854 5.64645C11.7603 5.55268 11.6331 5.5 11.5005 5.5C11.3679 5.5 11.2407 5.55268 11.1469 5.64645C11.0532 5.74021 11.0005 5.86739 11.0005 6V7H10.0005C9.86787 7 9.74069 7.05268 9.64692 7.14645C9.55315 7.24021 9.50047 7.36739 9.50047 7.5C9.50047 7.63261 9.55315 7.75979 9.64692 7.85355C9.74069 7.94732 9.86787 8 10.0005 8H11.0005V9C11.0005 9.13261 11.0532 9.25979 11.1469 9.35355C11.2407 9.44732 11.3679 9.5 11.5005 9.5C11.6331 9.5 11.7603 9.44732 11.854 9.35355C11.9478 9.25979 12.0005 9.13261 12.0005 9V8H13.0005C13.1331 8 13.2603 7.94732 13.354 7.85355C13.4478 7.75979 13.5005 7.63261 13.5005 7.5C13.5005 7.36739 13.4478 7.24021 13.354 7.14645C13.2603 7.05268 13.1331 7 13.0005 7ZM11.7073 3L3.00047 11.7069C2.81296 11.8943 2.5587 11.9995 2.2936 11.9995C2.0285 11.9995 1.77424 11.8943 1.58672 11.7069L0.292974 10.4144C0.200091 10.3215 0.126411 10.2113 0.0761423 10.0899C0.0258733 9.96858 0 9.83853 0 9.70719C0 9.57585 0.0258733 9.44579 0.0761423 9.32445C0.126411 9.20311 0.200091 9.09286 0.292974 9L9.00047 0.293125C9.09334 0.200242 9.20358 0.126562 9.32493 0.0762935C9.44627 0.0260245 9.57632 0.000151157 9.70766 0.000151157C9.839 0.000151157 9.96906 0.0260245 10.0904 0.0762935C10.2117 0.126562 10.322 0.200242 10.4148 0.293125L11.7073 1.58562C11.8002 1.67849 11.8739 1.78874 11.9242 1.91008C11.9745 2.03142 12.0003 2.16147 12.0003 2.29281C12.0003 2.42415 11.9745 2.55421 11.9242 2.67555C11.8739 2.79689 11.8002 2.90714 11.7073 3ZM8.29297 5L7.00047 3.70687L1.00047 9.70687L2.29297 11L8.29297 5ZM11.0005 2.29313L9.70735 1L7.70735 3L9.00047 4.29313L11.0005 2.29313Z" fill="white"/>
</svg>
