<svg width="12" height="11" viewBox="0 0 12 11" fill="none" xmlns="http://www.w3.org/2000/svg">
<path d="M12.0003 5.50028C12.0003 5.63289 11.9476 5.76006 11.8538 5.85383C11.7601 5.9476 11.6329 6.00028 11.5003 6.00028H6.00028C5.86767 6.00028 5.74049 5.9476 5.64672 5.85383C5.55296 5.76006 5.50028 5.63289 5.50028 5.50028C5.50028 5.36767 5.55296 5.24049 5.64672 5.14672C5.74049 5.05296 5.86767 5.00028 6.00028 5.00028H11.5003C11.6329 5.00028 11.7601 5.05296 11.8538 5.14672C11.9476 5.24049 12.0003 5.36767 12.0003 5.50028ZM6.00028 2.00028H11.5003C11.6329 2.00028 11.7601 1.9476 11.8538 1.85383C11.9476 1.76006 12.0003 1.63289 12.0003 1.50028C12.0003 1.36767 11.9476 1.24049 11.8538 1.14672C11.7601 1.05296 11.6329 1.00028 11.5003 1.00028H6.00028C5.86767 1.00028 5.74049 1.05296 5.64672 1.14672C5.55296 1.24049 5.50028 1.36767 5.50028 1.50028C5.50028 1.63289 5.55296 1.76006 5.64672 1.85383C5.74049 1.9476 5.86767 2.00028 6.00028 2.00028ZM11.5003 9.00028H6.00028C5.86767 9.00028 5.74049 9.05296 5.64672 9.14672C5.55296 9.24049 5.50028 9.36767 5.50028 9.50028C5.50028 9.63289 5.55296 9.76006 5.64672 9.85383C5.74049 9.9476 5.86767 10.0003 6.00028 10.0003H11.5003C11.6329 10.0003 11.7601 9.9476 11.8538 9.85383C11.9476 9.76006 12.0003 9.63289 12.0003 9.50028C12.0003 9.36767 11.9476 9.24049 11.8538 9.14672C11.7601 9.05296 11.6329 9.00028 11.5003 9.00028ZM3.14653 0.146528L1.50028 1.7934L0.854028 1.14653C0.760208 1.05271 0.63296 1 0.500278 1C0.367596 1 0.240348 1.05271 0.146528 1.14653C0.0527077 1.24035 9.88558e-10 1.3676 0 1.50028C-9.88558e-10 1.63296 0.0527077 1.76021 0.146528 1.85403L1.14653 2.85403C1.19296 2.90052 1.24811 2.9374 1.30881 2.96256C1.36951 2.98772 1.43457 3.00067 1.50028 3.00067C1.56599 3.00067 1.63105 2.98772 1.69175 2.96256C1.75245 2.9374 1.80759 2.90052 1.85403 2.85403L3.85403 0.854028C3.94785 0.760208 4.00056 0.63296 4.00056 0.500278C4.00056 0.367596 3.94785 0.240348 3.85403 0.146528C3.76021 0.0527077 3.63296 0 3.50028 0C3.3676 0 3.24035 0.0527077 3.14653 0.146528ZM3.14653 4.14653L1.50028 5.7934L0.854028 5.14653C0.760208 5.05271 0.63296 5 0.500278 5C0.367596 5 0.240348 5.05271 0.146528 5.14653C0.0527077 5.24035 0 5.3676 0 5.50028C0 5.56598 0.0129401 5.63103 0.0380814 5.69173C0.0632227 5.75242 0.100073 5.80757 0.146528 5.85403L1.14653 6.85403C1.19296 6.90052 1.24811 6.9374 1.30881 6.96256C1.36951 6.98772 1.43457 7.00067 1.50028 7.00067C1.56599 7.00067 1.63105 6.98772 1.69175 6.96256C1.75245 6.9374 1.80759 6.90052 1.85403 6.85403L3.85403 4.85403C3.94785 4.76021 4.00056 4.63296 4.00056 4.50028C4.00056 4.3676 3.94785 4.24035 3.85403 4.14653C3.76021 4.05271 3.63296 4 3.50028 4C3.3676 4 3.24035 4.05271 3.14653 4.14653ZM3.14653 8.14653L1.50028 9.7934L0.854028 9.14653C0.807573 9.10007 0.752423 9.06322 0.691726 9.03808C0.63103 9.01294 0.565975 9 0.500278 9C0.434581 9 0.369526 9.01294 0.30883 9.03808C0.248133 9.06322 0.192983 9.10007 0.146528 9.14653C0.100073 9.19298 0.0632227 9.24813 0.0380814 9.30883C0.0129401 9.36953 0 9.43458 0 9.50028C0 9.56598 0.0129401 9.63103 0.0380814 9.69173C0.0632227 9.75242 0.100073 9.80757 0.146528 9.85403L1.14653 10.854C1.19296 10.9005 1.24811 10.9374 1.30881 10.9626C1.36951 10.9877 1.43457 11.0007 1.50028 11.0007C1.56599 11.0007 1.63105 10.9877 1.69175 10.9626C1.75245 10.9374 1.80759 10.9005 1.85403 10.854L3.85403 8.85403C3.94785 8.76021 4.00056 8.63296 4.00056 8.50028C4.00056 8.3676 3.94785 8.24035 3.85403 8.14653C3.76021 8.05271 3.63296 8 3.50028 8C3.3676 8 3.24035 8.05271 3.14653 8.14653Z" fill="white"/>
</svg>
