<svg width="14" height="10" viewBox="0 0 14 10" fill="none" xmlns="http://www.w3.org/2000/svg">
<path d="M11.9412 2.0419C11.2931 1.39231 10.5228 0.877445 9.67475 0.526996C8.82668 0.176548 7.91762 -0.00255076 7 2.74444e-05H6.975C3.12937 0.0131524 0 3.18753 0 7.07065V8.50003C0 8.76524 0.105357 9.0196 0.292893 9.20713C0.48043 9.39467 0.734784 9.50003 1 9.50003H13C13.2652 9.50003 13.5196 9.39467 13.7071 9.20713C13.8946 9.0196 14 8.76524 14 8.50003V7.00003C14.0026 6.07839 13.8219 5.16544 13.4684 4.31426C13.115 3.46307 12.5959 2.69065 11.9412 2.0419ZM13 8.50003H6.48187L9.90438 3.79378C9.98245 3.68653 10.0147 3.55266 9.99409 3.42162C9.97346 3.29058 9.90162 3.1731 9.79438 3.09503C9.68713 3.01695 9.55326 2.98468 9.42222 3.00531C9.29118 3.02594 9.1737 3.09778 9.09562 3.20503L5.245 8.50003H1V7.07065C1 6.87815 1.00937 6.68815 1.02688 6.50003H2.5C2.63261 6.50003 2.75979 6.44735 2.85355 6.35358C2.94732 6.25981 3 6.13264 3 6.00003C3 5.86742 2.94732 5.74024 2.85355 5.64647C2.75979 5.55271 2.63261 5.50003 2.5 5.50003H1.20438C1.84938 3.07128 3.95438 1.23503 6.5 1.02128V2.50003C6.5 2.63264 6.55268 2.75981 6.64645 2.85358C6.74021 2.94735 6.86739 3.00003 7 3.00003C7.13261 3.00003 7.25979 2.94735 7.35355 2.85358C7.44732 2.75981 7.5 2.63264 7.5 2.50003V1.02065C8.74041 1.12504 9.91778 1.61209 10.8694 2.4145C11.8211 3.21692 12.5001 4.29508 12.8125 5.50003H11.5C11.3674 5.50003 11.2402 5.55271 11.1464 5.64647C11.0527 5.74024 11 5.86742 11 6.00003C11 6.13264 11.0527 6.25981 11.1464 6.35358C11.2402 6.44735 11.3674 6.50003 11.5 6.50003H12.9794C12.9925 6.66565 13 6.8319 13 7.00003V8.50003Z" fill="white"/>
</svg>
